<svg width="841.3px" height="199.3px" xmlns="http://www.w3.org/2000/svg" viewBox="-170.6400146484375 -24.62999877929687 841.280029296875 199.25999755859374" style="background: rgba(0, 0, 0, 0) none repeat scroll 0% 0%" preserveAspectRatio="xMidYMid"><defs><filter id="editing-extrude-glow"><feFlood flood-color="#333333" result="flood-1"></feFlood><feMorphology operator="erode" radius="1" in="SourceAlpha" result="erode"></feMorphology><feComposite operator="in" in="flood-1" in2="erode" result="comp1"></feComposite><feConvolveMatrix order="6,6" divisor="1" in="comp1" result="convolve" kernelMatrix="0 0 0 0 0 0 0 0 0 0 0 0 0 0 0 0 0 0 1 1 1 1 1 1 0 0 0 0 0 0 0 0 0 0 0 0"></feConvolveMatrix><feOffset dx="-6" dy="0" in="convolve" result="extrude"></feOffset><feComposite operator="in" in="flood-1" in2="extrude" result="comp-extrude"></feComposite><feFlood flood-color="#000000" result="flood-2"></feFlood><feComposite operator="in" in="flood-2" in2="SourceAlpha" result="comp2"></feComposite><feMorphology operator="dilate" radius="1" in="comp2" result="dilate"></feMorphology><feOffset dx="-9" dy="0" in="dilate" result="offset"></feOffset><feGaussianBlur in="offset" stdDeviation="5.8" result="blur"></feGaussianBlur><feComponentTransfer in="blur" result="shadow"><feFuncA type="linear" slope="0.8" intercept="-0.2"></feFuncA></feComponentTransfer><feMerge><feMergeNode in="shadow"></feMergeNode><feMergeNode in="comp-extrude"></feMergeNode><feMergeNode in="SourceGraphic"></feMergeNode></feMerge></filter></defs><g filter="url(#editing-extrude-glow)"><g transform="matrix(1.4,0,0,1.9,-169.9,255.7)"><path d="M 16 -133.5 L 16 -84.2 L 16 -84.2 Q 16 -82.7 13.9 -82.7 L 13.9 -82.7 L 13.9 -82.7 Q 12.3 -82.7 10 -84.2 L 10 -84.2 L 10 -84.2 Q 8.9 -86.6 8.9 -95.8 L 8.9 -95.8 L 8.9 -95.8 Q 8.9 -105 9.1 -111 L 9.1 -111 L 9.1 -111 Q 9.3 -116.9 9.5 -122 L 9.5 -122 L 9.5 -122 Q 10 -132.9 10 -133.5 L 10 -133.5 L 10 -133.5 Q 12.6 -135.1 14.3 -135.1 L 14.3 -135.1 L 14.3 -135.1 Q 16 -135.1 16 -133.5 L 16 -133.5 Z M 30.4 -84.2 L 30.4 -84.2 L 30.4 -84.2 Q 26.7 -82.7 25.5 -82.7 L 25.5 -82.7 L 25.5 -82.7 Q 24.3 -82.7 23.8 -83 L 23.8 -83 L 23.8 -83 Q 23.4 -83.2 22.9 -84.2 L 22.9 -84.2 L 22.9 -84.2 Q 22.9 -87.2 23.1 -91.7 L 23.1 -91.7 L 23.1 -91.7 Q 23.3 -96.2 23.5 -101.3 L 23.5 -101.3 L 23.5 -101.3 Q 23.7 -106.4 23.7 -111.6 L 23.7 -111.6 L 23.7 -111.6 Q 23.7 -116.8 23.1 -121.1 L 23.1 -121.1 L 23.1 -121.1 Q 23.1 -124 27 -124 L 27 -124 L 27 -124 Q 27.9 -124 28.4 -120.8 L 28.4 -120.8 L 28.4 -120.8 Q 28.9 -117.6 29.1 -115.8 L 29.1 -115.8 L 29.1 -115.8 Q 29.3 -114 29.5 -113.2 L 29.5 -113.2 L 29.5 -113.2 Q 31.8 -117.4 38.8 -119.8 L 38.8 -119.8 L 38.8 -119.8 Q 42.4 -121 45.7 -121 L 45.7 -121 L 45.7 -121 Q 48.9 -121 51.4 -120.2 L 51.4 -120.2 L 51.4 -120.2 Q 53.9 -119.4 55.6 -117.4 L 55.6 -117.4 L 55.6 -117.4 Q 57.4 -115.4 57.4 -112.1 L 57.4 -112.1 L 57.4 -112.1 Q 59.7 -116.5 67.9 -120 L 67.9 -120 L 67.9 -120 Q 75.3 -123.3 81.3 -123.3 L 81.3 -123.3 L 81.3 -123.3 Q 89.8 -123.3 89.6 -116.8 L 89.6 -116.8 L 91.5 -83.4 L 91.5 -83.4 Q 91.5 -83 88.9 -82.8 L 88.9 -82.8 L 88.9 -82.8 Q 83.9 -82.4 83.9 -83.7 L 83.9 -83.7 L 83.9 -83.7 Q 83.8 -85.5 83.8 -87.3 L 83.8 -87.3 L 84.2 -101.7 L 84.2 -101.7 Q 84.2 -111.9 82.2 -117.8 L 82.2 -117.8 L 82.2 -117.8 Q 76.3 -117.4 73.1 -115.9 L 73.1 -115.9 L 73.1 -115.9 Q 69.9 -114.4 67.5 -112.2 L 67.5 -112.2 L 67.5 -112.2 Q 65.1 -110 63.2 -106.3 L 63.2 -106.3 L 63.2 -106.3 Q 59 -98.1 59 -84.4 L 59 -84.4 L 59 -84.4 Q 58.4 -82.5 55.5 -82.5 L 55.5 -82.5 L 55.5 -82.5 Q 53.5 -82.5 52.2 -83.2 L 52.2 -83.2 L 52.2 -83.2 Q 51 -83.9 51.2 -84.4 L 51.2 -84.4 L 51.2 -84.4 Q 53 -93.9 53 -99.2 L 53 -99.2 L 53 -99.2 Q 53 -103.4 52.1 -107.3 L 52.1 -107.3 L 52.1 -107.3 Q 51.2 -111.1 50 -116 L 50 -116 L 50 -116 Q 37.1 -116 32.6 -105.7 L 32.6 -105.7 L 32.6 -105.7 Q 30.6 -101.1 30.4 -97.1 L 30.4 -97.1 L 30.4 -97.1 Q 30.1 -93.1 30.1 -90.3 L 30.1 -90.3 L 30.1 -90.3 Q 30.1 -87.5 30.4 -84.2 Z M 129.9 -97.7 L 129.9 -97.7 L 129.9 -97.7 Q 123.1 -87.1 111.9 -84.6 L 111.9 -84.6 L 111.9 -84.6 Q 109.3 -84 107.2 -84 L 107.2 -84 L 107.2 -84 Q 105.1 -84 103.7 -84.1 L 103.7 -84.1 L 103.7 -84.1 Q 102.3 -84.1 100.6 -84.5 L 100.6 -84.5 L 100.6 -84.5 Q 98.9 -84.9 97.4 -85.7 L 97.4 -85.7 L 97.4 -85.7 Q 94.1 -87.5 94.1 -91 L 94.1 -91 L 94.1 -91 Q 93.7 -92.6 93.7 -94.6 L 93.7 -94.6 L 93.7 -94.6 Q 93.7 -96.6 94.6 -99.9 L 94.6 -99.9 L 94.6 -99.9 Q 95.5 -103.3 97.9 -107.1 L 97.9 -107.1 L 97.9 -107.1 Q 100.3 -111 103.7 -114.2 L 103.7 -114.2 L 103.7 -114.2 Q 110.8 -121.1 119.1 -123 L 119.1 -123 L 119.1 -123 Q 121.5 -123.6 123.5 -123.6 L 123.5 -123.6 L 123.5 -123.6 Q 125.5 -123.6 127.2 -123.3 L 127.2 -123.3 L 127.2 -123.3 Q 132.4 -123.3 134.2 -116.2 L 134.2 -116.2 L 134.2 -116.2 Q 135.3 -111.7 135.6 -103.7 L 135.6 -103.7 L 135.6 -103.7 Q 135.8 -95.6 136 -91.3 L 136 -91.3 L 136 -91.3 Q 136.2 -86.9 137.1 -83.3 L 137.1 -83.3 L 131.8 -83.3 L 131.8 -83.3 Q 131.5 -85.7 131.3 -87.6 L 131.3 -87.6 L 131.3 -87.6 Q 131.1 -89.5 130.9 -91.1 L 130.9 -91.1 L 130.9 -91.1 Q 130.5 -94.9 129.9 -97.7 Z M 129.5 -111.6 L 129.5 -111.6 L 129.5 -111.6 Q 129.5 -116.8 124.4 -116.8 L 124.4 -116.8 L 124.4 -116.8 Q 123.8 -116.9 123.1 -116.9 L 123.1 -116.9 L 123.1 -116.9 Q 116.6 -116.9 109.3 -110.6 L 109.3 -110.6 L 109.3 -110.6 Q 105.9 -107.8 103.4 -104.2 L 103.4 -104.2 L 103.4 -104.2 Q 99.9 -99 99.9 -95 L 99.9 -95 L 99.9 -95 Q 99.9 -89.7 106 -88.7 L 106 -88.7 L 106 -88.7 Q 114 -88.9 121.4 -96.1 L 121.4 -96.1 L 121.4 -96.1 Q 124.6 -99.2 126.6 -102.9 L 126.6 -102.9 L 126.6 -102.9 Q 129.5 -107.9 129.5 -111.6 Z M 167.3 -44.3 L 167.3 -44.3 L 166.1 -44.4 L 166.1 -44.4 Q 163.4 -44.4 160.3 -44.1 L 160.3 -44.1 L 156.9 -44.1 L 156.9 -44.1 Q 151.5 -44.1 148.5 -46.1 L 148.5 -46.1 L 148.5 -46.1 Q 146.8 -47.2 146.8 -49.4 L 146.8 -49.4 L 167.5 -50.4 L 167.5 -50.4 Q 177 -50.6 177 -60.6 L 177 -60.6 L 177 -60.6 Q 177 -61 177 -61.8 L 177 -61.8 L 177 -61.8 Q 177 -62.7 177 -65.5 L 177 -65.5 L 177.5 -94.5 L 177.5 -94.5 Q 177.5 -96 177.4 -97 L 177.4 -97 L 177.4 -97 Q 162.8 -83.4 149.4 -83.4 L 149.4 -83.4 L 149.4 -83.4 Q 148.2 -83.4 147 -83.5 L 147 -83.5 L 147 -83.5 Q 141 -83.5 141 -88.8 L 141 -88.8 L 141 -88.8 Q 141.2 -92.9 143.4 -97.9 L 143.4 -97.9 L 143.4 -97.9 Q 145.7 -102.9 149.2 -107.5 L 149.2 -107.5 L 149.2 -107.5 Q 152.8 -112.2 157.3 -115.8 L 157.3 -115.8 L 157.3 -115.8 Q 164.2 -121.5 170.6 -121.5 L 170.6 -121.5 L 170.6 -121.5 Q 178.2 -121.5 183 -113.5 L 183 -113.5 L 183 -113.5 Q 184.5 -92.1 184.5 -83.1 L 184.5 -83.1 L 184.5 -83.1 Q 184.5 -74.2 184.2 -68.4 L 184.2 -68.4 L 184.2 -68.4 Q 183.9 -62.7 183 -57.9 L 183 -57.9 L 183 -57.9 Q 182.1 -53.1 180.5 -50.4 L 180.5 -50.4 L 180.5 -50.4 Q 179 -47.6 176.9 -46.3 L 176.9 -46.3 L 176.9 -46.3 Q 173.5 -44.3 167.3 -44.3 Z M 172.7 -114.9 L 172.7 -114.9 L 172.7 -114.9 Q 171.6 -115.3 169.7 -115.3 L 169.7 -115.3 L 169.7 -115.3 Q 167.8 -115.3 164.7 -113.7 L 164.7 -113.7 L 164.7 -113.7 Q 161.7 -112.1 158.9 -109.5 L 158.9 -109.5 L 158.9 -109.5 Q 156.1 -107 153.7 -103.8 L 153.7 -103.8 L 153.7 -103.8 Q 147.7 -96.1 147.7 -91.5 L 147.7 -91.5 L 147.7 -91.5 Q 147.7 -90.1 148.5 -89.3 L 148.5 -89.3 L 148.5 -89.3 Q 149.2 -89 150.1 -89 L 150.1 -89 L 150.1 -89 Q 151.1 -89 152.9 -89.3 L 152.9 -89.3 L 152.9 -89.3 Q 154.7 -89.6 157.8 -90.9 L 157.8 -90.9 L 157.8 -90.9 Q 160.9 -92.2 164.2 -94.3 L 164.2 -94.3 L 164.2 -94.3 Q 167.5 -96.4 170.2 -98.9 L 170.2 -98.9 L 170.2 -98.9 Q 176.5 -104.6 176.5 -110.1 L 176.5 -110.1 L 176.5 -110.1 Q 176.5 -113.4 172.7 -114.9 Z M 207.1 -89.1 L 207.1 -89.1 L 207.1 -89.1 Q 215 -89.1 230.9 -96.3 L 230.9 -96.3 L 230.9 -96.3 Q 231.9 -96.3 232.6 -95.6 L 232.6 -95.6 L 232.6 -95.6 Q 233.2 -94.9 233.2 -94 L 233.2 -94 L 233.2 -94 Q 229.6 -87.9 219.4 -84.5 L 219.4 -84.5 L 219.4 -84.5 Q 209.3 -81.1 200.5 -83.3 L 200.5 -83.3 L 200.5 -83.3 Q 190.5 -85.9 188.3 -94.6 L 188.3 -94.6 L 188.3 -94.6 Q 188.2 -96.3 188.2 -99.1 L 188.2 -99.1 L 188.2 -99.1 Q 188.2 -102 189.7 -106.7 L 189.7 -106.7 L 189.7 -106.7 Q 191.1 -111.4 194.7 -115.7 L 194.7 -115.7 L 194.7 -115.7 Q 198.3 -119.9 203.2 -122.3 L 203.2 -122.3 L 203.2 -122.3 Q 208 -124.7 213.5 -124.7 L 213.5 -124.7 L 213.5 -124.7 Q 218.7 -124.7 225.2 -121.1 L 225.2 -121.1 L 225.2 -121.1 Q 228.2 -119.4 230 -117.3 L 230 -117.3 L 230 -117.3 Q 231.8 -115.1 231.8 -112.9 L 231.8 -112.9 L 231.8 -112.9 Q 231.8 -112.3 231.7 -111.6 L 231.7 -111.6 L 231.7 -111.6 Q 231.6 -106.1 226.4 -104.7 L 226.4 -104.7 L 226.4 -104.7 Q 224.2 -104.1 221.2 -104.1 L 221.2 -104.1 L 208.3 -104.6 L 208.3 -104.6 Q 201.8 -104.6 198.4 -101.8 L 198.4 -101.8 L 198.4 -101.8 Q 196.4 -100.3 195.6 -97.2 L 195.6 -97.2 L 195.6 -97.2 Q 197.9 -89.1 207.1 -89.1 Z M 223.2 -116.8 L 223.2 -116.8 L 223.2 -116.8 Q 221.1 -118.3 219 -118.9 L 219 -118.9 L 219 -118.9 Q 216.8 -119.5 215.4 -119.5 L 215.4 -119.5 L 215.4 -119.5 Q 214 -119.5 210.7 -118.6 L 210.7 -118.6 L 210.7 -118.6 Q 207.5 -117.6 205 -116.5 L 205 -116.5 L 205 -116.5 Q 198.8 -113.6 198.8 -110.5 L 198.8 -110.5 L 198.8 -110.5 Q 206 -109.8 209.6 -109.8 L 209.6 -109.8 L 209.6 -109.8 Q 219.5 -109.8 223 -111.5 L 223 -111.5 L 223 -111.5 Q 225.2 -112.4 225.2 -113.8 L 225.2 -113.8 L 225.2 -113.8 Q 225.2 -115.4 223.2 -116.8 Z M 269.3 -106 L 269.3 -106 L 269.3 -106 Q 279.2 -106 279.2 -100.9 L 279.2 -100.9 L 279.2 -100.9 Q 279.2 -97.2 273.7 -92.1 L 273.7 -92.1 L 273.7 -92.1 Q 265.5 -84.7 251.7 -80.2 L 251.7 -80.2 L 251.7 -80.2 Q 251.1 -80.2 250.3 -81.4 L 250.3 -81.4 L 250.3 -81.4 Q 249.5 -82.7 249.1 -83.4 L 249.1 -83.4 L 249.1 -83.4 Q 248.7 -84 248.5 -84.2 L 248.5 -84.2 L 248.5 -84.2 Q 258.9 -87.6 265.5 -92.5 L 265.5 -92.5 L 265.5 -92.5 Q 270 -95.7 270 -97.8 L 270 -97.8 L 270 -97.8 Q 270 -99.9 264.7 -99.9 L 264.7 -99.9 L 264.7 -99.9 Q 259.4 -99.9 249.2 -97.3 L 249.2 -97.3 L 249.2 -97.3 Q 244.5 -97.5 241.1 -100.7 L 241.1 -100.7 L 241.1 -100.7 Q 238.1 -103.4 238.1 -106.3 L 238.1 -106.3 L 238.1 -106.3 Q 238.1 -109.1 239.7 -111.5 L 239.7 -111.5 L 239.7 -111.5 Q 241.4 -113.9 244.1 -115.9 L 244.1 -115.9 L 244.1 -115.9 Q 246.7 -118 250.3 -119.7 L 250.3 -119.7 L 250.3 -119.7 Q 259.1 -123.9 268.6 -123.9 L 268.6 -123.9 L 268.6 -123.9 Q 271.4 -123.9 274 -123.4 L 274 -123.4 L 274 -123.4 Q 276.1 -123.4 276.5 -121.5 L 276.5 -121.5 L 276.5 -121.5 Q 276.8 -119.6 276.8 -115.3 L 276.8 -115.3 L 276.8 -115.3 Q 271.5 -117.7 264.9 -117.7 L 264.9 -117.7 L 264.9 -117.7 Q 256.6 -117.7 251.2 -114.4 L 251.2 -114.4 L 251.2 -114.4 Q 245.7 -111.2 245.5 -106 L 245.5 -106 L 245.5 -106 Q 245.5 -103.4 249.2 -103.4 L 249.2 -103.4 L 255.7 -104.2 L 255.7 -104.2 Q 264.2 -106 269.3 -106 Z M 363.7 -78.4 L 363.7 -78.4 L 363.7 -94.8 L 363.7 -94.8 Q 355.2 -89 351.9 -87.1 L 351.9 -87.1 L 351.9 -87.1 Q 344.1 -82.9 338.3 -82.9 L 338.3 -82.9 L 338.3 -82.9 Q 331.3 -82.9 326.3 -88 L 326.3 -88 L 326.3 -88 Q 321.1 -93.3 321.1 -100.1 L 321.1 -100.1 L 321.1 -100.1 Q 321.6 -107.3 324.2 -114.7 L 324.2 -114.7 L 324.2 -114.7 Q 329.6 -130.3 342.1 -137.6 L 342.1 -137.6 L 342.1 -137.6 Q 348.3 -141.3 356.4 -141.3 L 356.4 -141.3 L 356.4 -141.3 Q 356.5 -141.3 356.7 -141.3 L 356.7 -141.3 L 359.1 -141.4 L 359.1 -141.4 Q 363.3 -141.4 362.9 -138.1 L 362.9 -138.1 L 362.9 -138.1 Q 355.7 -137.8 349.4 -134.8 L 349.4 -134.8 L 349.4 -134.8 Q 343.1 -131.8 338.5 -126.9 L 338.5 -126.9 L 338.5 -126.9 Q 333.9 -121.9 331.2 -115.2 L 331.2 -115.2 L 331.2 -115.2 Q 328.6 -108.6 328.6 -101.7 L 328.6 -101.7 L 328.6 -101.7 Q 328.6 -94.7 332.2 -91.7 L 332.2 -91.7 L 332.2 -91.7 Q 335.8 -88.6 341.4 -88.6 L 341.4 -88.6 L 341.4 -88.6 Q 346.3 -88.6 354.9 -92.8 L 354.9 -92.8 L 354.9 -92.8 Q 360.4 -95.5 363.1 -99 L 363.1 -99 L 363.1 -99 Q 364.4 -100.6 364.4 -102.4 L 364.4 -102.4 L 364.4 -115.7 L 364.4 -115.7 Q 361.7 -115.7 351.9 -113.6 L 351.9 -113.6 L 351.9 -113.6 Q 342.1 -111.5 340.5 -111.3 L 340.5 -111.3 L 340.5 -111.3 Q 340.1 -111.5 339.5 -111.8 L 339.5 -111.8 L 339.5 -111.8 Q 338.8 -112.2 338.7 -112.8 L 338.7 -112.8 L 338.7 -112.8 Q 338.6 -114.1 342.7 -116.9 L 342.7 -116.9 L 342.7 -116.9 Q 343.7 -117.5 354.6 -119 L 354.6 -119 L 354.6 -119 Q 365.4 -120.6 368.4 -121.1 L 368.4 -121.1 L 368.4 -121.1 Q 371.4 -121.5 373.3 -121.8 L 373.3 -121.8 L 373.3 -121.8 Q 374.2 -121.6 375.6 -121.8 L 375.6 -121.8 L 375.6 -121.8 Q 376.9 -122 378.1 -122 L 378.1 -122 L 378.1 -122 Q 381 -121.9 380.8 -118.8 L 380.8 -118.8 L 373.3 -115.8 L 373.3 -115.8 Q 371.6 -110.3 371.6 -95.1 L 371.6 -95.1 L 371.8 -81.7 L 371.8 -81.7 Q 371.8 -79.9 371.8 -78.4 L 371.8 -78.4 L 371.8 -78.4 Q 369.1 -77 366.6 -77 L 366.6 -77 L 366.6 -77 Q 364.1 -77 363.7 -78.4 Z M 420.6 -97.7 L 420.6 -97.7 L 420.6 -97.7 Q 413.9 -87.1 402.6 -84.6 L 402.6 -84.6 L 402.6 -84.6 Q 400 -84 397.9 -84 L 397.9 -84 L 397.9 -84 Q 395.8 -84 394.4 -84.1 L 394.4 -84.1 L 394.4 -84.1 Q 393 -84.1 391.3 -84.5 L 391.3 -84.5 L 391.3 -84.5 Q 389.6 -84.9 388.2 -85.7 L 388.2 -85.7 L 388.2 -85.7 Q 384.8 -87.5 384.8 -91 L 384.8 -91 L 384.8 -91 Q 384.5 -92.6 384.5 -94.6 L 384.5 -94.6 L 384.5 -94.6 Q 384.5 -96.6 385.4 -99.9 L 385.4 -99.9 L 385.4 -99.9 Q 386.3 -103.3 388.7 -107.1 L 388.7 -107.1 L 388.7 -107.1 Q 391 -111 394.5 -114.2 L 394.5 -114.2 L 394.5 -114.2 Q 401.5 -121.1 409.8 -123 L 409.8 -123 L 409.8 -123 Q 412.2 -123.6 414.3 -123.6 L 414.3 -123.6 L 414.3 -123.6 Q 416.3 -123.6 417.9 -123.3 L 417.9 -123.3 L 417.9 -123.3 Q 423.1 -123.3 424.9 -116.2 L 424.9 -116.2 L 424.9 -116.2 Q 426.1 -111.7 426.3 -103.7 L 426.3 -103.7 L 426.3 -103.7 Q 426.5 -95.6 426.7 -91.3 L 426.7 -91.3 L 426.7 -91.3 Q 427 -86.9 427.9 -83.3 L 427.9 -83.3 L 422.6 -83.3 L 422.6 -83.3 Q 422.2 -85.7 422 -87.6 L 422 -87.6 L 422 -87.6 Q 421.9 -89.5 421.7 -91.1 L 421.7 -91.1 L 421.7 -91.1 Q 421.2 -94.9 420.6 -97.7 Z M 420.2 -111.6 L 420.2 -111.6 L 420.2 -111.6 Q 420.2 -116.8 415.1 -116.8 L 415.1 -116.8 L 415.1 -116.8 Q 414.5 -116.9 413.9 -116.9 L 413.9 -116.9 L 413.9 -116.9 Q 407.3 -116.9 400 -110.6 L 400 -110.6 L 400 -110.6 Q 396.6 -107.8 394.2 -104.2 L 394.2 -104.2 L 394.2 -104.2 Q 390.6 -99 390.6 -95 L 390.6 -95 L 390.6 -95 Q 390.6 -89.7 396.7 -88.7 L 396.7 -88.7 L 396.7 -88.7 Q 404.8 -88.9 412.1 -96.1 L 412.1 -96.1 L 412.1 -96.1 Q 415.3 -99.2 417.4 -102.9 L 417.4 -102.9 L 417.4 -102.9 Q 420.2 -107.9 420.2 -111.6 Z M 433.7 -117.6 L 433.7 -117.6 L 433.7 -117.6 Q 433.5 -122.5 433.4 -126.3 L 433.4 -126.3 L 433.4 -126.3 Q 433.2 -130.1 433.1 -132 L 433.1 -132 L 433.1 -132 Q 433.1 -133.8 431.6 -141 L 431.6 -141 L 431.6 -141 Q 432.5 -142.1 433.2 -143.1 L 433.2 -143.1 L 433.2 -143.1 Q 434 -144.1 435.4 -144.1 L 435.4 -144.1 L 435.4 -144.1 Q 438.6 -144.1 440.3 -117.6 L 440.3 -117.6 L 440.3 -117.6 Q 441.2 -102.2 441.2 -86.8 L 441.2 -86.8 L 441.2 -86.8 Q 441.2 -82.7 435.4 -82.7 L 435.4 -82.7 L 434.7 -82.8 L 434.7 -82.8 Q 434.7 -87.5 434.4 -94.7 L 434.4 -94.7 L 434.4 -94.7 Q 434.2 -102 434 -107.4 L 434 -107.4 L 434 -107.4 Q 433.9 -112.8 433.7 -117.6 Z M 448.2 -117.6 L 448.2 -117.6 L 448.2 -117.6 Q 448 -122.5 447.8 -126.3 L 447.8 -126.3 L 447.8 -126.3 Q 447.6 -130.1 447.6 -132 L 447.6 -132 L 447.6 -132 Q 447.5 -133.8 446.1 -141 L 446.1 -141 L 446.1 -141 Q 446.9 -142.1 447.7 -143.1 L 447.7 -143.1 L 447.7 -143.1 Q 448.4 -144.1 449.9 -144.1 L 449.9 -144.1 L 449.9 -144.1 Q 453 -144.1 454.7 -117.6 L 454.7 -117.6 L 454.7 -117.6 Q 455.6 -102.2 455.6 -86.8 L 455.6 -86.8 L 455.6 -86.8 Q 455.6 -82.7 449.9 -82.7 L 449.9 -82.7 L 449.2 -82.8 L 449.2 -82.8 Q 449.2 -87.5 448.9 -94.7 L 448.9 -94.7 L 448.9 -94.7 Q 448.6 -102 448.5 -107.4 L 448.5 -107.4 L 448.5 -107.4 Q 448.4 -112.8 448.2 -117.6 Z M 479.4 -89.1 L 479.4 -89.1 L 479.4 -89.1 Q 487.3 -89.1 503.2 -96.3 L 503.2 -96.3 L 503.2 -96.3 Q 504.1 -96.3 504.8 -95.6 L 504.8 -95.6 L 504.8 -95.6 Q 505.4 -94.9 505.4 -94 L 505.4 -94 L 505.4 -94 Q 501.8 -87.9 491.7 -84.5 L 491.7 -84.5 L 491.7 -84.5 Q 481.5 -81.1 472.7 -83.3 L 472.7 -83.3 L 472.7 -83.3 Q 462.7 -85.9 460.6 -94.6 L 460.6 -94.6 L 460.6 -94.6 Q 460.4 -96.3 460.4 -99.1 L 460.4 -99.1 L 460.4 -99.1 Q 460.4 -102 461.9 -106.7 L 461.9 -106.7 L 461.9 -106.7 Q 463.4 -111.4 467 -115.7 L 467 -115.7 L 467 -115.7 Q 470.5 -119.9 475.4 -122.3 L 475.4 -122.3 L 475.4 -122.3 Q 480.3 -124.7 485.7 -124.7 L 485.7 -124.7 L 485.7 -124.7 Q 490.9 -124.7 497.4 -121.1 L 497.4 -121.1 L 497.4 -121.1 Q 500.5 -119.4 502.3 -117.3 L 502.3 -117.3 L 502.3 -117.3 Q 504.1 -115.1 504.1 -112.9 L 504.1 -112.9 L 504.1 -112.9 Q 504.1 -112.3 504 -111.6 L 504 -111.6 L 504 -111.6 Q 503.8 -106.1 498.7 -104.7 L 498.7 -104.7 L 498.7 -104.7 Q 496.4 -104.1 493.5 -104.1 L 493.5 -104.1 L 480.5 -104.6 L 480.5 -104.6 Q 474.1 -104.6 470.6 -101.8 L 470.6 -101.8 L 470.6 -101.8 Q 468.7 -100.3 467.9 -97.2 L 467.9 -97.2 L 467.9 -97.2 Q 470.1 -89.1 479.4 -89.1 Z M 495.4 -116.8 L 495.4 -116.8 L 495.4 -116.8 Q 493.4 -118.3 491.2 -118.9 L 491.2 -118.9 L 491.2 -118.9 Q 489.1 -119.5 487.6 -119.5 L 487.6 -119.5 L 487.6 -119.5 Q 486.2 -119.5 482.9 -118.6 L 482.9 -118.6 L 482.9 -118.6 Q 479.7 -117.6 477.2 -116.5 L 477.2 -116.5 L 477.2 -116.5 Q 471 -113.6 471 -110.5 L 471 -110.5 L 471 -110.5 Q 478.2 -109.8 481.8 -109.8 L 481.8 -109.8 L 481.8 -109.8 Q 491.8 -109.8 495.3 -111.5 L 495.3 -111.5 L 495.3 -111.5 Q 497.4 -112.4 497.4 -113.8 L 497.4 -113.8 L 497.4 -113.8 Q 497.4 -115.4 495.4 -116.8 Z M 554.9 -115.6 L 554.9 -115.6 L 554.9 -115.6 Q 551.1 -118.3 545.2 -118.3 L 545.2 -118.3 L 545.2 -118.3 Q 539.6 -118.3 534.9 -116.2 L 534.9 -116.2 L 534.9 -116.2 Q 525.9 -112.4 522.6 -106.5 L 522.6 -106.5 L 522.6 -106.5 Q 521.1 -103.8 521.1 -100.8 L 521.1 -100.8 L 521.1 -100.8 Q 521.1 -100.2 521.1 -97.7 L 521.1 -97.7 L 521.1 -97.7 Q 521.1 -95.3 522 -91.1 L 522 -91.1 L 522 -91.1 Q 522.9 -86.9 522.9 -82.6 L 522.9 -82.6 L 522.9 -82.6 Q 521 -82.5 519.9 -82.2 L 519.9 -82.2 L 519.9 -82.2 Q 518.7 -81.8 517.9 -81.8 L 517.9 -81.8 L 517.9 -81.8 Q 517.1 -81.8 516.5 -82.5 L 516.5 -82.5 L 516.5 -82.5 Q 515.9 -83.2 515.2 -85.3 L 515.2 -85.3 L 515.2 -85.3 Q 515.1 -85.8 514.8 -88.4 L 514.8 -88.4 L 514.8 -88.4 Q 514.6 -90.9 514.2 -94.5 L 514.2 -94.5 L 514.2 -94.5 Q 513.8 -98.1 513.3 -102.3 L 513.3 -102.3 L 513.3 -102.3 Q 512.8 -106.6 512.3 -110.7 L 512.3 -110.7 L 512.3 -110.7 Q 511.3 -119.7 510.8 -123.9 L 510.8 -123.9 L 510.8 -123.9 Q 510.8 -126.1 513.9 -126.1 L 513.9 -126.1 L 513.9 -126.1 Q 515.8 -126.1 516.9 -124.5 L 516.9 -124.5 L 516.9 -124.5 Q 518 -122.9 518.6 -120.9 L 518.6 -120.9 L 518.6 -120.9 Q 519.2 -118.9 519.5 -116.9 L 519.5 -116.9 L 519.5 -116.9 Q 519.7 -114.9 519.9 -114.1 L 519.9 -114.1 L 519.9 -114.1 Q 531.7 -124.7 549.3 -124.7 L 549.3 -124.7 L 549.3 -124.7 Q 551.3 -124.7 553.5 -124.7 L 553.5 -124.7 L 553.5 -124.7 Q 554 -124.7 554.8 -124.7 L 554.8 -124.7 L 554.8 -124.7 Q 555.6 -124.7 556.4 -123.7 L 556.4 -123.7 L 556.4 -123.7 Q 557.4 -122.4 557.4 -120.6 L 557.4 -120.6 L 557.4 -120.6 Q 557.4 -116.1 554.9 -115.6 Z M 607.8 -121.8 L 580.5 -48.9 L 580.5 -48.9 Q 578.6 -44.7 576 -44.7 L 576 -44.7 L 576 -44.7 Q 574.8 -44.7 574.2 -45.8 L 574.2 -45.8 L 574.2 -45.8 Q 573.6 -46.9 574.1 -48.5 L 574.1 -48.5 L 574.1 -48.5 Q 576.1 -56.8 579.8 -67.5 L 579.8 -67.5 L 579.8 -67.5 Q 583.6 -78.2 584.8 -81.9 L 584.8 -81.9 L 584.8 -81.9 Q 581.7 -85 574.9 -94.5 L 574.9 -94.5 L 574.9 -94.5 Q 561.1 -113.9 561.1 -115.8 L 561.1 -115.8 L 561.1 -115.8 Q 561.1 -115.8 561.2 -115.9 L 561.2 -115.9 L 564.6 -119.4 L 564.6 -119.4 Q 571.7 -112.8 583.1 -97.1 L 583.1 -97.1 L 583.1 -97.1 Q 586 -93.1 587.7 -90.4 L 587.7 -90.4 L 587.7 -90.4 Q 589.6 -94.2 590.7 -96.9 L 590.7 -96.9 L 590.7 -96.9 Q 591.7 -99.7 592.4 -101.3 L 592.4 -101.3 L 592.4 -101.3 Q 593.1 -103 594.3 -105.8 L 594.3 -105.8 L 594.3 -105.8 Q 597.3 -113.2 602.7 -124.7 L 602.7 -124.7 L 602.7 -124.7 Q 603.5 -125.1 604.4 -125.1 L 604.4 -125.1 L 604.4 -125.1 Q 606.7 -125.1 607.6 -123.9 L 607.6 -123.9 L 607.6 -123.9 Q 608 -123.5 608 -122.9 L 608 -122.9 L 608 -122.9 Q 608 -122.3 607.8 -121.8 L 607.8 -121.8 Z" fill="#df2121"></path></g></g><style>text {
  font-size: 64px;
  font-family: Arial Black;
  dominant-baseline: central;
  text-anchor: middle;
}</style></svg>